<?xml version="1.0" encoding="UTF-8" standalone="no"?>
<!DOCTYPE svg PUBLIC "-//W3C//DTD SVG 1.1//EN"
 "http://www.w3.org/Graphics/SVG/1.1/DTD/svg11.dtd">
<!-- Generated by graphviz version 2.40.1 (20161225.0304)
 -->
<!-- Title: NSGraph Pages: 1 -->
<svg width="276pt" height="305pt"
 viewBox="0.00 0.00 276.49 305.00" xmlns="http://www.w3.org/2000/svg" xmlns:xlink="http://www.w3.org/1999/xlink">
<g id="graph0" class="graph" transform="scale(1 1) rotate(0) translate(4 301)">
<title>NSGraph</title>
<polygon fill="#ffffff" stroke="transparent" points="-4,4 -4,-301 272.4925,-301 272.4925,4 -4,4"/>
<!-- 1 -->
<g id="node1" class="node">
<title>1</title>
<ellipse fill="none" stroke="#000000" cx="120.2463" cy="-279" rx="46.2923" ry="18"/>
<text text-anchor="middle" x="120.2463" y="-275.3" font-family="Times,serif" font-size="14.00" fill="#000000"> (10, 0, 0)</text>
</g>
<!-- 2 -->
<g id="node2" class="node">
<title>2</title>
<ellipse fill="none" stroke="#000000" cx="42.2463" cy="-192" rx="42.4939" ry="18"/>
<text text-anchor="middle" x="42.2463" y="-188.3" font-family="Times,serif" font-size="14.00" fill="#000000"> (7, 2, 0)</text>
</g>
<!-- 1&#45;&#45;2 -->
<g id="edge1" class="edge">
<title>1&#45;&#45;2</title>
<path fill="none" stroke="#000000" d="M104.836,-261.8116C91.0727,-246.4603 71.031,-224.106 57.3591,-208.8567"/>
<text text-anchor="middle" x="89.7463" y="-231.8" font-family="Times,serif" font-size="14.00" fill="#000000">3</text>
</g>
<!-- 3 -->
<g id="node3" class="node">
<title>3</title>
<ellipse fill="none" stroke="#000000" cx="97.2463" cy="-105" rx="42.4939" ry="18"/>
<text text-anchor="middle" x="97.2463" y="-101.3" font-family="Times,serif" font-size="14.00" fill="#000000"> (4, 4, 0)</text>
</g>
<!-- 1&#45;&#45;3 -->
<g id="edge4" class="edge">
<title>1&#45;&#45;3</title>
<path fill="none" stroke="#000000" d="M117.8283,-260.7078C113.3994,-227.2024 104.0365,-156.3695 99.6318,-123.0471"/>
<text text-anchor="middle" x="113.7463" y="-188.3" font-family="Times,serif" font-size="14.00" fill="#000000">6</text>
</g>
<!-- 4 -->
<g id="node4" class="node">
<title>4</title>
<ellipse fill="none" stroke="#000000" cx="97.2463" cy="-18" rx="42.4939" ry="18"/>
<text text-anchor="middle" x="97.2463" y="-14.3" font-family="Times,serif" font-size="14.00" fill="#000000"> (1, 6, 0)</text>
</g>
<!-- 1&#45;&#45;4 -->
<g id="edge6" class="edge">
<title>1&#45;&#45;4</title>
<path fill="none" stroke="#000000" d="M128.195,-261.0583C142.3445,-226.52 168.5897,-148.749 148.2463,-87 141.5808,-66.7681 126.4485,-47.6092 114.3883,-34.6374"/>
<text text-anchor="middle" x="158.7463" y="-144.8" font-family="Times,serif" font-size="14.00" fill="#000000">9</text>
</g>
<!-- 2&#45;&#45;3 -->
<g id="edge2" class="edge">
<title>2&#45;&#45;3</title>
<path fill="none" stroke="#000000" d="M53.3763,-174.3943C62.9186,-159.3001 76.5953,-137.6661 86.1327,-122.5796"/>
<text text-anchor="middle" x="76.7463" y="-144.8" font-family="Times,serif" font-size="14.00" fill="#000000">3</text>
</g>
<!-- 2&#45;&#45;4 -->
<g id="edge5" class="edge">
<title>2&#45;&#45;4</title>
<path fill="none" stroke="#000000" d="M37.7857,-173.8949C33.3805,-152.4411 28.6927,-115.9566 39.2463,-87 46.9092,-65.9747 64.1087,-46.9087 77.7997,-34.1736"/>
<text text-anchor="middle" x="42.7463" y="-101.3" font-family="Times,serif" font-size="14.00" fill="#000000">6</text>
</g>
<!-- 3&#45;&#45;4 -->
<g id="edge3" class="edge">
<title>3&#45;&#45;4</title>
<path fill="none" stroke="#000000" d="M97.2463,-86.9735C97.2463,-72.0422 97.2463,-50.9283 97.2463,-36.0034"/>
<text text-anchor="middle" x="100.7463" y="-57.8" font-family="Times,serif" font-size="14.00" fill="#000000">3</text>
</g>
<!-- 5 -->
<g id="node5" class="node">
<title>5</title>
<ellipse fill="none" stroke="#000000" cx="226.2463" cy="-279" rx="42.4939" ry="18"/>
<text text-anchor="middle" x="226.2463" y="-275.3" font-family="Times,serif" font-size="14.00" fill="#000000"> (0, 0, 3)</text>
</g>
</g>
</svg>
